<svg width="360" height="360" viewBox="0 0 360 360" fill="none" xmlns="http://www.w3.org/2000/svg">
<rect width="360" height="360" fill="white"/>
<path d="M90.0591 159.83C87.0431 159.83 84.2624 159.055 81.7168 157.506C79.1989 155.956 77.179 153.895 75.6572 151.322C74.1631 148.721 73.416 145.871 73.416 142.772V138.871C73.416 138.566 73.5544 138.414 73.8311 138.414H83.377C83.5983 138.414 83.709 138.566 83.709 138.871V142.772C83.709 144.626 84.3315 146.231 85.5767 147.586C86.8218 148.915 88.3159 149.579 90.0591 149.579C91.8299 149.579 93.3379 148.901 94.583 147.545C95.8281 146.161 96.4507 144.57 96.4507 142.772C96.4507 140.697 95.0949 138.884 92.3833 137.335C91.9406 137.058 91.3595 136.726 90.6401 136.339C89.9484 135.924 89.1183 135.453 88.1499 134.928C87.1815 134.402 86.2407 133.89 85.3276 133.392C84.4146 132.866 83.5291 132.368 82.6714 131.898C79.5724 130.072 77.262 127.789 75.7402 125.05C74.2461 122.283 73.499 119.184 73.499 115.753C73.499 112.599 74.2738 109.749 75.8232 107.203C77.3727 104.685 79.3926 102.693 81.8828 101.227C84.4007 99.7324 87.1261 98.9854 90.0591 98.9854C93.075 98.9854 95.842 99.7324 98.3599 101.227C100.878 102.748 102.884 104.768 104.378 107.286C105.9 109.804 106.661 112.626 106.661 115.753V122.726C106.661 122.947 106.55 123.058 106.329 123.058H96.7827C96.5614 123.058 96.4507 122.947 96.4507 122.726L96.3677 115.753C96.3677 113.761 95.7451 112.142 94.5 110.897C93.2549 109.652 91.7746 109.029 90.0591 109.029C88.3159 109.029 86.8218 109.693 85.5767 111.021C84.3315 112.35 83.709 113.927 83.709 115.753C83.709 117.607 84.0964 119.156 84.8711 120.401C85.6735 121.646 87.1261 122.836 89.229 123.971C89.4504 124.081 89.9622 124.358 90.7646 124.801C91.5671 125.243 92.4525 125.742 93.4209 126.295C94.417 126.821 95.3162 127.305 96.1187 127.748C96.9211 128.163 97.4053 128.412 97.5713 128.495C100.394 130.072 102.621 132.009 104.253 134.305C105.914 136.602 106.744 139.424 106.744 142.772C106.744 146.009 105.997 148.915 104.502 151.488C102.981 154.061 100.961 156.095 98.4429 157.589C95.925 159.083 93.1304 159.83 90.0591 159.83ZM140.445 159H112.969C112.748 159 112.637 158.862 112.637 158.585L112.72 100.189C112.72 99.9676 112.831 99.8569 113.052 99.8569H140.362C140.583 99.8569 140.694 99.9953 140.694 100.272V109.776C140.694 109.998 140.583 110.108 140.362 110.108H122.93V123.39H140.362C140.583 123.39 140.694 123.5 140.694 123.722L140.777 133.351C140.777 133.572 140.666 133.683 140.445 133.683H122.93V148.541H140.445C140.666 148.541 140.777 148.679 140.777 148.956V158.668C140.777 158.889 140.666 159 140.445 159ZM158.292 159H148.663C148.441 159 148.331 158.862 148.331 158.585L148.497 100.189C148.497 99.9676 148.607 99.8569 148.829 99.8569H159.205C159.426 99.8569 159.62 99.9676 159.786 100.189L167.547 111.395L175.267 100.189C175.433 99.9676 175.64 99.8569 175.889 99.8569H186.307C186.556 99.8569 186.68 99.9676 186.68 100.189L186.846 158.585C186.846 158.862 186.736 159 186.514 159H176.885C176.664 159 176.553 158.862 176.553 158.585L176.47 115.213L167.547 128.163L158.707 115.213L158.624 158.585C158.624 158.862 158.513 159 158.292 159ZM204.029 159H194.4C194.123 159 193.985 158.862 193.985 158.585L194.068 100.189C194.068 99.9676 194.179 99.8569 194.4 99.8569H203.946C204.167 99.8569 204.278 99.9676 204.278 100.189L204.361 158.585C204.361 158.862 204.25 159 204.029 159ZM227.562 159.83C224.546 159.83 221.765 159.055 219.219 157.506C216.701 155.956 214.668 153.895 213.118 151.322C211.596 148.721 210.835 145.871 210.835 142.772L210.918 115.836C210.918 112.682 211.679 109.846 213.201 107.328C214.695 104.782 216.715 102.748 219.261 101.227C221.806 99.6771 224.573 98.9023 227.562 98.9023C230.66 98.9023 233.441 99.6632 235.904 101.185C238.394 102.707 240.386 104.754 241.88 107.328C243.402 109.873 244.163 112.709 244.163 115.836L244.246 142.772C244.246 145.871 243.499 148.707 242.005 151.28C240.483 153.881 238.463 155.956 235.945 157.506C233.427 159.055 230.633 159.83 227.562 159.83ZM227.562 149.579C229.277 149.579 230.771 148.887 232.044 147.503C233.317 146.092 233.953 144.515 233.953 142.772L233.87 115.836C233.87 113.954 233.275 112.363 232.085 111.063C230.896 109.763 229.388 109.112 227.562 109.112C225.818 109.112 224.324 109.749 223.079 111.021C221.834 112.294 221.211 113.899 221.211 115.836V142.772C221.211 144.626 221.834 146.231 223.079 147.586C224.324 148.915 225.818 149.579 227.562 149.579ZM259.935 159H251.426C250.984 159 250.762 158.806 250.762 158.419L250.679 100.521C250.679 100.078 250.901 99.8569 251.343 99.8569H259.021L273.382 133.351L272.967 100.521C272.967 100.078 273.216 99.8569 273.714 99.8569H282.139C282.471 99.8569 282.637 100.078 282.637 100.521L282.72 158.502C282.72 158.834 282.582 159 282.305 159H274.834L260.101 127.706L260.723 158.336C260.723 158.779 260.46 159 259.935 159ZM35.8965 266H26.2676C26.0462 266 25.9355 265.862 25.9355 265.585L26.0186 207.189C26.0186 206.968 26.1569 206.857 26.4336 206.857H35.8965C36.1732 206.857 36.3115 206.968 36.3115 207.189L36.2285 230.307H48.9702V207.189C48.9702 206.968 49.0809 206.857 49.3022 206.857H58.7651C59.0418 206.857 59.1802 206.968 59.1802 207.189L59.3462 265.585C59.3462 265.862 59.2078 266 58.9312 266H49.3853C49.1086 266 48.9702 265.862 48.9702 265.585V240.6H36.2285V265.585C36.2285 265.862 36.1178 266 35.8965 266ZM63.4136 265.585L73.9556 207.189C74.0109 206.968 74.1493 206.857 74.3706 206.857H86.6973C86.9186 206.857 87.057 206.968 87.1123 207.189L97.2393 265.585C97.2669 265.862 97.1562 266 96.9072 266H87.4858C87.2091 266 87.057 265.862 87.0293 265.585L86.1162 259.359H74.5366L73.6235 265.585C73.5959 265.862 73.4575 266 73.2085 266H63.7456C63.5243 266 63.4136 265.862 63.4136 265.585ZM80.0566 226.405L76.2383 250.27H84.4146L80.9282 226.405L80.4302 223.251L80.0566 226.405ZM111.807 266H103.299C102.856 266 102.635 265.806 102.635 265.419L102.552 207.521C102.552 207.078 102.773 206.857 103.216 206.857H110.894L125.254 240.351L124.839 207.521C124.839 207.078 125.088 206.857 125.586 206.857H134.012C134.344 206.857 134.51 207.078 134.51 207.521L134.593 265.502C134.593 265.834 134.454 266 134.178 266H126.707L111.973 234.706L112.596 265.336C112.596 265.779 112.333 266 111.807 266ZM157.627 265.917L142.396 266C142.119 266 141.98 265.862 141.98 265.585L142.146 207.189C142.146 206.968 142.257 206.857 142.479 206.857L158.375 206.774C161.529 206.691 164.379 207.41 166.924 208.932C169.498 210.454 171.545 212.515 173.067 215.116C174.616 217.689 175.391 220.539 175.391 223.666V248.07C175.391 251.335 174.603 254.324 173.025 257.035C171.421 259.719 169.29 261.863 166.634 263.468C163.978 265.045 160.975 265.862 157.627 265.917ZM158.375 216.942L152.439 217.025L152.356 255.541H157.627C159.73 255.541 161.501 254.808 162.94 253.341C164.379 251.875 165.098 250.118 165.098 248.07V223.583C165.098 221.785 164.434 220.221 163.106 218.893C161.778 217.537 160.201 216.887 158.375 216.942ZM192.034 266H182.405C182.184 266 182.073 265.862 182.073 265.585L182.239 207.189C182.239 206.968 182.35 206.857 182.571 206.857H192.947C193.169 206.857 193.362 206.968 193.528 207.189L201.29 218.395L209.009 207.189C209.175 206.968 209.383 206.857 209.632 206.857H220.049C220.298 206.857 220.423 206.968 220.423 207.189L220.589 265.585C220.589 265.862 220.478 266 220.257 266H210.628C210.407 266 210.296 265.862 210.296 265.585L210.213 222.213L201.29 235.163L192.449 222.213L192.366 265.585C192.366 265.862 192.256 266 192.034 266ZM224.864 265.585L235.406 207.189C235.461 206.968 235.599 206.857 235.821 206.857H248.147C248.369 206.857 248.507 206.968 248.562 207.189L258.689 265.585C258.717 265.862 258.606 266 258.357 266H248.936C248.659 266 248.507 265.862 248.479 265.585L247.566 259.359H235.987L235.074 265.585C235.046 265.862 234.908 266 234.659 266H225.196C224.974 266 224.864 265.862 224.864 265.585ZM241.507 226.405L237.688 250.27H245.865L242.378 226.405L241.88 223.251L241.507 226.405ZM279.649 265.917L264.417 266C264.14 266 264.002 265.862 264.002 265.585L264.168 207.189C264.168 206.968 264.279 206.857 264.5 206.857L280.396 206.774C283.55 206.691 286.4 207.41 288.946 208.932C291.519 210.454 293.567 212.515 295.088 215.116C296.638 217.689 297.413 220.539 297.413 223.666V248.07C297.413 251.335 296.624 254.324 295.047 257.035C293.442 259.719 291.312 261.863 288.655 263.468C285.999 265.045 282.997 265.862 279.649 265.917ZM280.396 216.942L274.461 217.025L274.378 255.541H279.649C281.752 255.541 283.523 254.808 284.961 253.341C286.4 251.875 287.12 250.118 287.12 248.07V223.583C287.12 221.785 286.456 220.221 285.127 218.893C283.799 217.537 282.222 216.887 280.396 216.942ZM331.902 266H304.427C304.205 266 304.095 265.862 304.095 265.585L304.178 207.189C304.178 206.968 304.288 206.857 304.51 206.857H331.819C332.041 206.857 332.151 206.995 332.151 207.272V216.776C332.151 216.998 332.041 217.108 331.819 217.108H314.388V230.39H331.819C332.041 230.39 332.151 230.5 332.151 230.722L332.234 240.351C332.234 240.572 332.124 240.683 331.902 240.683H314.388V255.541H331.902C332.124 255.541 332.234 255.679 332.234 255.956V265.668C332.234 265.889 332.124 266 331.902 266Z" fill="#E02800"/>
</svg>
